SplineFontDB: 3.2
FontName: QuasarOpen-Thin
FullName: Quasar Open Thin
FamilyName: Quasar Open
Weight: Thin
Copyright: Copyright (c) 2023, neilb
UComments: "2023-12-15: Created with FontForge (http://fontforge.org)"
Version: 000.001
ItalicAngle: 0
UnderlinePosition: -100
UnderlineWidth: 50
Ascent: 800
Descent: 200
InvalidEm: 0
LayerCount: 2
Layer: 0 0 "Back" 1
Layer: 1 0 "Fore" 0
XUID: [1021 441 2049316168 16478]
StyleMap: 0x0000
FSType: 0
OS2Version: 0
OS2_WeightWidthSlopeOnly: 0
OS2_UseTypoMetrics: 1
CreationTime: 1702635369
ModificationTime: 1704974923
OS2TypoAscent: 0
OS2TypoAOffset: 1
OS2TypoDescent: 0
OS2TypoDOffset: 1
OS2TypoLinegap: 90
OS2WinAscent: 0
OS2WinAOffset: 1
OS2WinDescent: 0
OS2WinDOffset: 1
HheadAscent: 0
HheadAOffset: 1
HheadDescent: 0
HheadDOffset: 1
MarkAttachClasses: 1
DEI: 91125
Encoding: UnicodeFull
UnicodeInterp: none
NameList: AGL For New Fonts
DisplaySize: -48
AntiAlias: 1
FitToEm: 1
WinInfo: 16 16 8
BeginPrivate: 0
EndPrivate
Grid
-1000 500.25 m 0
 2000 500.25 l 1024
EndSplineSet
BeginChars: 1114113 36

StartChar: i
Encoding: 105 105 0
Width: 155
Flags: HMW
LayerCount: 2
Fore
SplineSet
53 679 m 0
 53 693 64 704 78 704 c 0
 92 704 103 693 103 679 c 0
 103 665 92 654 78 654 c 0
 64 654 53 665 53 679 c 0
65 500 m 1
 90 500 l 1
 90 0 l 1
 65 0 l 1
 65 500 l 1
EndSplineSet
EndChar

StartChar: o
Encoding: 111 111 1
Width: 598
Flags: HMW
LayerCount: 2
Fore
SplineSet
69 250 m 4
 69 121 165 15 299 15 c 4
 433 15 529 121 529 250 c 4
 529 379 433 485 299 485 c 4
 165 485 69 379 69 250 c 4
44 250 m 4
 44 395 150 510 299 510 c 4
 448 510 554 395 554 250 c 4
 554 105 448 -10 299 -10 c 4
 150 -10 44 105 44 250 c 4
EndSplineSet
EndChar

StartChar: n
Encoding: 110 110 2
Width: 600
Flags: HMW
LayerCount: 2
Back
SplineSet
135 275 m 4
 135 405 240 510 370 510 c 4
 500 510 605 405 605 275 c 4
 605 145 500 40 370 40 c 4
 240 40 135 145 135 275 c 4
160 275 m 0
 160 391 254 485 370 485 c 0
 486 485 580 391 580 275 c 0
 580 159 486 65 370 65 c 0
 254 65 160 159 160 275 c 0
EndSplineSet
Fore
SplineSet
65 268 m 2
 65 415 176 510 300 510 c 0
 424 510 535 414 535 268 c 2
 535 0 l 9
 510 0 l 17
 510 267 l 2
 510 404 406 485 300 485 c 0
 194 485 90 404 90 267 c 2
 90 0 l 9
 65 0 l 17
 65 268 l 2
EndSplineSet
EndChar

StartChar: m
Encoding: 109 109 3
Width: 925
Flags: HMW
LayerCount: 2
Back
SplineSet
520 268 m 2
 520 415 631 510 755 510 c 0
 879 510 990 414 990 268 c 2
 990 0 l 9
 965 0 l 17
 965 267 l 2
 965 404 861 485 755 485 c 0
 649 485 545 404 545 267 c 2
 545 0 l 9
 520 0 l 17
 520 268 l 2
75 268 m 2
 75 415 186 510 310 510 c 0
 434 510 545 414 545 268 c 2
 545 0 l 9
 520 0 l 17
 520 267 l 2
 520 404 416 485 310 485 c 0
 204 485 100 404 100 267 c 2
 100 0 l 9
 75 0 l 17
 75 268 l 2
EndSplineSet
Fore
SplineSet
455 268 m 2
 455 415 533 510 657 510 c 0
 779 510 860 412 860 268 c 2
 860 0 l 9
 835 0 l 17
 835 267 l 2
 835 404 761 485 655 485 c 0
 549 485 475 404 475 267 c 2
 475 0 l 9
 455 0 l 17
 455 268 l 2
65 268 m 2
 65 414 146 510 268 510 c 0
 392 510 470 414 470 268 c 2
 470 0 l 9
 450 0 l 17
 450 267 l 2
 450 404 376 485 270 485 c 0
 164 485 90 404 90 267 c 2
 90 0 l 9
 65 0 l 17
 65 268 l 2
EndSplineSet
EndChar

StartChar: l
Encoding: 108 108 4
Width: 155
Flags: HMW
LayerCount: 2
Fore
SplineSet
65 828 m 1
 90 828 l 1
 90 0 l 1
 65 0 l 1
 65 828 l 1
EndSplineSet
EndChar

StartChar: h
Encoding: 104 104 5
Width: 600
Flags: HMW
LayerCount: 2
Back
SplineSet
135 828 m 1
 160 828 l 1
 160 0 l 1
 135 0 l 1
 135 828 l 1
135 268 m 2
 135 415 246 510 370 510 c 0
 494 510 605 414 605 268 c 2
 605 0 l 9
 580 0 l 17
 580 267 l 2
 580 404 476 485 370 485 c 0
 264 485 160 404 160 267 c 2
 160 230 l 9
 135 230 l 17
 135 268 l 2
EndSplineSet
Fore
SplineSet
65 828 m 1
 90 828 l 1
 90 0 l 1
 65 0 l 1
 65 828 l 1
73 268 m 2
 73 415 170 510 306 510 c 0
 422 510 535 415 535 268 c 2
 535 0 l 9
 510 0 l 17
 510 267 l 2
 510 400 412 485 300 485 c 0
 194 485 90 404 90 267 c 2
 90 230 l 9
 73 230 l 17
 73 268 l 2
EndSplineSet
EndChar

StartChar: g
Encoding: 103 103 6
Width: 547
Flags: HMW
LayerCount: 2
Back
SplineSet
305 475 m 6
 198 475 114 389 114 284 c 7
 114 179 200 93 305 93 c 4
 410 93 496 179 496 284 c 4
 496 333 477 377 447 411 c 5
 480 411 l 5
 506 375 521 331 521 284 c 4
 521 165 424 68 305 68 c 4
 186 68 89 165 89 284 c 4
 89 403 186 500 305 500 c 6
 521 500 l 5
 521 475 l 5
 305 475 l 6
114 -122 m 4
 114 -227 200 -313 305 -313 c 4
 410 -313 496 -227 496 -122 c 4
 496 -17 410 69 305 69 c 4
 200 69 114 -17 114 -122 c 4
89 -122 m 4
 89 -3 186 94 305 94 c 4
 424 94 521 -3 521 -122 c 4
 521 -241 424 -338 305 -338 c 4
 186 -338 89 -241 89 -122 c 4
-1100 -135 m 0
 -1100 -243 -1013 -330 -905 -330 c 0
 -797 -330 -710 -243 -710 -135 c 0
 -710 -27 -797 60 -905 60 c 0
 -1013 60 -1100 -27 -1100 -135 c 0
-1125 -135 m 0
 -1125 -14 -1026 85 -905 85 c 0
 -784 85 -685 -14 -685 -135 c 0
 -685 -256 -784 -355 -905 -355 c 0
 -1026 -355 -1125 -256 -1125 -135 c 0
-714.671875 390 m 1
 -695.817382812 357.591796875 -685 319.998046875 -685 280 c 0
 -685 159 -784 60 -905 60 c 0
 -1026 60 -1125 159 -1125 280 c 0
 -1125 401 -1026 500 -905 500 c 2
 -685 500 l 1
 -685 475 l 1
 -905 475 l 2
 -1013 475 -1100 388 -1100 280 c 0
 -1100 172 -1013 85 -905 85 c 0
 -797 85 -710 172 -710 280 c 0
 -710 320.865234375 -722.456054688 358.723632812 -743.791992188 390 c 1
 -714.671875 390 l 1
691 -170 m 0
 691 -65 767 15 876 15 c 0
 985 15 1061 -65 1061 -170 c 0
 1061 -275 985 -355 876 -355 c 0
 767 -355 691 -275 691 -170 c 0
716 -170 m 0
 716 -259 782 -330 876 -330 c 0
 970 -330 1036 -259 1036 -170 c 0
 1036 -81 970 -10 876 -10 c 0
 782 -10 716 -81 716 -170 c 0
1086.984375 400 m 1
 1115.109375 357.786132812 1131 306.141601562 1131 250 c 0
 1131 105 1025 -10 876 -10 c 0
 727 -10 621 105 621 250 c 0
 621 395 727 500 876 500 c 2
 1131 500 l 1
 1131 475 l 1
 876 475 l 2
 742 475 646 379 646 250 c 0
 646 121 742 15 876 15 c 0
 1010 15 1106 121 1106 250 c 0
 1106 306.829101562 1087.36914062 359.194335938 1055.06640625 400 c 1
 1086.984375 400 l 1
-609 -245 m 0
 -609 -100 -503 15 -354 15 c 0
 -205 15 -99 -100 -99 -245 c 0
 -99 -390 -205 -505 -354 -505 c 0
 -503 -505 -609 -390 -609 -245 c 0
-584 -245 m 0
 -584 -374 -488 -480 -354 -480 c 0
 -220 -480 -124 -374 -124 -245 c 0
 -124 -116 -220 -10 -354 -10 c 0
 -488 -10 -584 -116 -584 -245 c 0
-584 250 m 0
 -584 121 -488 15 -354 15 c 0
 -220 15 -124 121 -124 250 c 0
 -124 379 -220 485 -354 485 c 0
 -488 485 -584 379 -584 250 c 0
-240.715820312 485 m 1
 -154.111328125 443.5078125 -99 354.552734375 -99 250 c 0
 -99 105 -205 -10 -354 -10 c 0
 -503 -10 -609 105 -609 250 c 0
 -609 395 -503 510 -354 510 c 2
 -99 510 l 1
 -99 485 l 1
 -240.715820312 485 l 1
EndSplineSet
Fore
SplineSet
75 -122 m 0
 75 -227 161 -313 266 -313 c 0
 371 -313 457 -227 457 -122 c 0
 457 -17 371 69 266 69 c 0
 161 69 75 -17 75 -122 c 0
50 -122 m 0
 50 -1 147 89 266 89 c 0
 385 89 482 -1 482 -122 c 0
 482 -241 385 -338 266 -338 c 0
 147 -338 50 -241 50 -122 c 0
266 475 m 2
 159 475 75 389 75 284 c 3
 75 179 161 93 266 93 c 0
 371 93 457 179 457 284 c 0
 457 333 438 377 408 411 c 1
 441 411 l 1
 467 375 482 331 482 284 c 0
 482 163 385 73 266 73 c 0
 147 73 50 163 50 284 c 0
 50 403 147 500 266 500 c 2
 482 500 l 1
 482 475 l 1
 266 475 l 2
EndSplineSet
EndChar

StartChar: a
Encoding: 97 97 7
Width: 609
Flags: HMW
LayerCount: 2
Back
SplineSet
110 250 m 0
 110 121 206 15 340 15 c 0
 474 15 570 121 570 250 c 0
 570 379 474 485 340 485 c 0
 206 485 110 379 110 250 c 0
85 250 m 0
 85 395 191 510 340 510 c 0
 489 510 595 395 595 250 c 0
 595 105 489 -10 340 -10 c 0
 191 -10 85 105 85 250 c 0
EndSplineSet
Fore
SplineSet
299 485 m 0
 165 485 69 379 69 250 c 0
 69 121 165 15 299 15 c 0
 361.077148438 15 415 37.7490234375 455 74.9951171875 c 1
 455 41.1787109375 l 1
 412.8984375 8.955078125 359.493164062 -10 299 -10 c 0
 150 -10 44 105 44 250 c 0
 44 395 150 510 299 510 c 0
 423 510 544 419 544 238 c 2
 544 0 l 1
 519 0 l 1
 519 237 l 2
 519 404 408 485 299 485 c 0
EndSplineSet
EndChar

StartChar: r
Encoding: 114 114 8
Width: 432
Flags: HMW
LayerCount: 2
Back
SplineSet
150 250 m 0
 150 121 246 15 380 15 c 0
 514 15 610 121 610 250 c 0
 610 379 514 485 380 485 c 0
 246 485 150 379 150 250 c 0
125 250 m 0
 125 395 231 510 380 510 c 0
 529 510 635 395 635 250 c 0
 635 105 529 -10 380 -10 c 0
 231 -10 125 105 125 250 c 0
EndSplineSet
Fore
SplineSet
321 510 m 3
 337 510 362 508 382 503 c 1
 382 477 l 17
 354 484 335 485 321 485 c 3
 188 485 90 382 90 249 c 2
 90 0 l 9
 65 0 l 17
 65 250 l 2
 65 396 172 510 321 510 c 3
EndSplineSet
EndChar

StartChar: x
Encoding: 120 120 9
Width: 627
Flags: HMW
LayerCount: 2
Back
SplineSet
93 500 m 1
 212 500 315 431 335 313 c 1
 355 431 459 500 578 500 c 1
 578 475 l 1
 444 475 348 379 348 250 c 0
 348 121 444 25 578 25 c 1
 578 0 l 1
 459 0 355 69 335 187 c 1
 315 69 212 0 93 0 c 1
 93 25 l 1
 227 25 323 121 323 250 c 0
 323 379 227 475 93 475 c 1
 93 500 l 1
578 475 m 1
 444 475 348 379 348 250 c 0
 348 121 444 25 578 25 c 1
 578 0 l 1
 429 0 323 105 323 250 c 0
 323 395 429 500 578 500 c 1
 578 475 l 1
93 25 m 1
 227 25 323 121 323 250 c 0
 323 379 227 475 93 475 c 1
 93 500 l 1
 242 500 348 395 348 250 c 0
 348 105 242 0 93 0 c 1
 93 25 l 1
EndSplineSet
Fore
SplineSet
101 485 m 3
 85 485 78 485 65 482 c 9
 65 507 l 1
 76 510 86 510 101 510 c 3
 204 510 321 395 321 250 c 0
 321 105 204 -10 101 -10 c 3
 86 -10 76 -9 65 -6 c 1
 65 19 l 17
 78 16 85 15 101 15 c 3
 189 15 301 121 301 250 c 0
 301 379 189 485 101 485 c 3
526 15 m 3
 542 15 549 15 562 18 c 9
 562 -7 l 1
 551 -10 541 -10 526 -10 c 3
 413 -10 306 105 306 250 c 0
 306 395 413 510 526 510 c 3
 541 510 551 510 562 507 c 1
 562 482 l 17
 549 485 542 485 526 485 c 3
 428 485 326 379 326 250 c 0
 326 121 428 15 526 15 c 3
EndSplineSet
EndChar

StartChar: q
Encoding: 113 113 10
Width: 609
Flags: HMW
LayerCount: 2
Fore
SplineSet
299 485 m 0
 165 485 69 379 69 250 c 0
 69 121 165 15 299 15 c 0
 361.077148438 15 415 37.7490234375 455 74.9951171875 c 1
 455 41.1787109375 l 1
 412.8984375 8.955078125 359.493164062 -10 299 -10 c 0
 150 -10 44 105 44 250 c 0
 44 395 150 510 299 510 c 0
 423 510 544 419 544 238 c 2
 544 -328 l 1
 519 -328 l 1
 519 237 l 2
 519 404 408 485 299 485 c 0
EndSplineSet
EndChar

StartChar: e
Encoding: 101 101 15
Width: 619
Flags: HMW
LayerCount: 2
Back
SplineSet
110 250 m 0
 110 121 206 15 340 15 c 0
 474 15 570 121 570 250 c 0
 570 379 474 485 340 485 c 0
 206 485 110 379 110 250 c 0
85 250 m 0
 85 395 191 510 340 510 c 0
 489 510 595 395 595 250 c 0
 595 105 489 -10 340 -10 c 0
 191 -10 85 105 85 250 c 0
EndSplineSet
Fore
SplineSet
299 25 m 2
 554 25 l 1
 554 0 l 1
 299 0 l 2
 150 0 44 105 44 250 c 3
 44 395 150 510 299 510 c 3
 448 510 554 395 554 250 c 3
 554 188.881835938 535.166992188 133.092773438 502.219726562 89 c 1
 468.774414062 89 l 1
 506.770507812 131.174804688 529 187.924804688 529 250 c 3
 529 379 433 485 299 485 c 3
 165 485 69 379 69 250 c 3
 69 121 165 25 299 25 c 2
EndSplineSet
EndChar

StartChar: y
Encoding: 121 121 16
Width: 600
Flags: HMW
LayerCount: 2
Back
SplineSet
120 -78 m 0
 120 -207 216 -313 350 -313 c 0
 484 -313 580 -207 580 -78 c 0
 580 51 484 157 350 157 c 0
 216 157 120 51 120 -78 c 0
95 -78 m 0
 95 67 201 182 350 182 c 0
 499 182 605 67 605 -78 c 0
 605 -223 499 -338 350 -338 c 0
 201 -338 95 -223 95 -78 c 0
EndSplineSet
Fore
SplineSet
527 232 m 2
 527 85 430 -10 294 -10 c 0
 178 -10 65 85 65 232 c 2
 65 500 l 9
 90 500 l 17
 90 233 l 2
 90 100 188 15 300 15 c 0
 406 15 510 96 510 233 c 2
 510 270 l 9
 527 270 l 17
 527 232 l 2
138 -266 m 1
 173 -293 222 -313 280 -313 c 3
 414 -313 510 -207 510 -78 c 2
 510 500 l 1
 535 500 l 1
 535 -78 l 2
 535 -223 429 -338 280 -338 c 3
 223 -338 179 -323 138 -297 c 1
 138 -266 l 1
EndSplineSet
EndChar

StartChar: w
Encoding: 119 119 17
Width: 925
Flags: HMW
LayerCount: 2
Back
SplineSet
530 242 m 2
 530 95 434 0 310 0 c 2
 125 0 l 9
 125 500 l 9
 150 500 l 17
 150 25 l 17
 310 25 l 2
 416 25 510 106 510 243 c 2
 510 500 l 9
 530 500 l 17
 530 242 l 2
EndSplineSet
Fore
SplineSet
470 242 m 2
 470 95 374 0 250 0 c 2
 65 0 l 9
 65 500 l 9
 90 500 l 17
 90 25 l 17
 250 25 l 2
 356 25 450 106 450 243 c 2
 450 500 l 9
 470 500 l 17
 470 242 l 2
860 232 m 2
 860 86 779 -10 657 -10 c 0
 533 -10 455 86 455 232 c 2
 455 500 l 9
 475 500 l 17
 475 233 l 2
 475 96 549 15 655 15 c 0
 761 15 835 96 835 233 c 2
 835 500 l 9
 860 500 l 17
 860 232 l 2
EndSplineSet
EndChar

StartChar: uni0261
Encoding: 609 609 18
Width: 620
Flags: MW
LayerCount: 2
Fore
SplineSet
515 -78 m 2
 515 237 l 2
 515 404 404 485 295 485 c 0
 161 485 65 379 65 250 c 0
 65 121 161 15 295 15 c 0
 357.077561523 15 410.999792884 37.7492967995 451 74.9951578719 c 1
 451 41.1785031205 l 1
 408.898144661 8.95534920896 355.492753135 -10 295 -10 c 0
 146 -10 40 105 40 250 c 0
 40 395 146 510 295 510 c 0
 419 510 540 419 540 238 c 2
 540 -78 l 2
 540 -223 434 -338 285 -338 c 3
 228 -338 184 -323 143 -297 c 1
 143 -265 l 1
 178 -293 227 -313 285 -313 c 3
 419 -313 515 -207 515 -78 c 2
EndSplineSet
EndChar

StartChar: f
Encoding: 102 102 19
Width: 447
Flags: HMW
LayerCount: 2
Fore
SplineSet
321 838 m 0
 337 838 362 836 382 831 c 1
 382 805 l 1
 354 812 335 813 321 813 c 0
 188 813 90 710 90 577 c 2
 90 500 l 1
 377 500 l 5
 377 475 l 5
 90 475 l 1
 90 0 l 1
 65 0 l 1
 65 578 l 2
 65 724 172 838 321 838 c 0
EndSplineSet
EndChar

StartChar: t
Encoding: 116 116 20
Width: 447
Flags: HMW
LayerCount: 2
Fore
SplineSet
321 -10 m 0
 172 -10 65 104 65 250 c 2
 65 679 l 1
 90 679 l 1
 90 500 l 1
 377 500 l 5
 377 475 l 5
 90 475 l 1
 90 251 l 2
 90 118 188 15 321 15 c 0
 335 15 354 16 382 23 c 1
 382 -3 l 1
 362 -8 337 -10 321 -10 c 0
EndSplineSet
EndChar

StartChar: j
Encoding: 106 106 21
Width: 391
Flags: HMW
LayerCount: 2
Back
SplineSet
334 669 m 4
 334 683 345 694 359 694 c 4
 373 694 384 683 384 669 c 4
 384 655 373 644 359 644 c 4
 345 644 334 655 334 669 c 4
347 -328 m 29
 347 500 l 5
 372 500 l 5
 372 -328 l 29
 347 -328 l 29
EndSplineSet
Fore
SplineSet
289 679 m 0
 289 693 300 704 314 704 c 0
 328 704 339 693 339 679 c 0
 339 665 328 654 314 654 c 0
 300 654 289 665 289 679 c 0
302 500 m 1
 327 500 l 1
 327 -78 l 2
 327 -224 220 -338 71 -338 c 0
 55 -338 30 -336 10 -331 c 1
 10 -305 l 1
 38 -312 57 -313 71 -313 c 0
 204 -313 302 -210 302 -77 c 2
 302 500 l 1
EndSplineSet
EndChar

StartChar: c
Encoding: 99 99 22
Width: 426
Flags: HMW
LayerCount: 2
Back
SplineSet
341 510 m 7
 357 510 382 508 402 503 c 5
 402 477 l 21
 374 484 355 485 341 485 c 7
 208 485 110 382 110 249 c 2
 110 0 l 9
 85 0 l 17
 85 250 l 2
 85 396 192 510 341 510 c 7
EndSplineSet
Fore
SplineSet
299 15 m 3
 313 15 332 16 360 23 c 9
 360 -3 l 1
 340 -8 315 -10 299 -10 c 3
 150 -10 44 105 44 250 c 0
 44 395 151 510 300 510 c 3
 316 510 341 508 361 503 c 1
 361 477 l 17
 333 484 314 485 300 485 c 3
 166 485 69 379 69 250 c 0
 69 121 165 15 299 15 c 3
EndSplineSet
EndChar

StartChar: s
Encoding: 115 115 23
Width: 569
Flags: HMW
LayerCount: 2
Back
SplineSet
276 288 m 0
 276 397 364 485 473 485 c 0
 582 485 670 397 670 288 c 0
 670 179 582 91 473 91 c 0
 364 91 276 179 276 288 c 0
304 316 m 0
 304 409 380 485 473 485 c 0
 566 485 642 409 642 316 c 0
 642 223 566 147 473 147 c 0
 380 147 304 223 304 316 c 0
327 339 m 0
 327 420 392 485 473 485 c 0
 554 485 619 420 619 339 c 0
 619 258 554 193 473 193 c 0
 392 193 327 258 327 339 c 0
EndSplineSet
Fore
SplineSet
272 250 m 19
 272 396 329 510 458 510 c 3
 474 510 499 508 519 503 c 1
 519 477 l 17
 491 484 472 485 458 485 c 3
 345 485 297 382 297 249 c 3
 297 103 250 -11 111 -11 c 3
 95 -11 70 -9 50 -4 c 1
 50 22 l 17
 78 15 97 14 111 14 c 3
 234 14 272 121 272 250 c 19
EndSplineSet
EndChar

StartChar: v
Encoding: 118 118 24
Width: 560
Flags: HMW
LayerCount: 2
Fore
SplineSet
495 242 m 2
 495 95 384 0 260 0 c 2
 65 0 l 9
 65 500 l 9
 90 500 l 17
 90 25 l 17
 260 25 l 2
 366 25 470 106 470 243 c 2
 470 500 l 9
 495 500 l 17
 495 242 l 2
EndSplineSet
EndChar

StartChar: k
Encoding: 107 107 26
Width: 485
Flags: HMW
LayerCount: 2
Fore
SplineSet
180 247 m 2
 76 247 l 9
 76 267 l 17
 180 267 l 2
 286 267 400 348 400 485 c 2
 400 500 l 9
 425 500 l 17
 425 484 l 2
 425 338 304 247 180 247 c 2
180 262 m 2
 304 262 425 171 425 25 c 2
 425 -1 l 9
 400 -1 l 17
 400 24 l 2
 400 161 286 242 180 242 c 2
 76 242 l 9
 76 262 l 17
 180 262 l 2
65 828 m 1
 90 828 l 1
 90 0 l 1
 65 0 l 1
 65 828 l 1
EndSplineSet
EndChar

StartChar: z
Encoding: 122 122 27
Width: 420
Flags: HMWO
LayerCount: 2
Back
SplineSet
-17 -122 m 0
 -17 -227 69 -313 174 -313 c 0
 279 -313 365 -227 365 -122 c 0
 365 -17 279 69 174 69 c 0
 69 69 -17 -17 -17 -122 c 0
-42 -122 m 0
 -42 -1 55 89 174 89 c 0
 293 89 390 -1 390 -122 c 0
 390 -241 293 -338 174 -338 c 0
 55 -338 -42 -241 -42 -122 c 0
391 -78 m 17
 391 -223 285 -338 136 -338 c 3
 79 -338 35 -323 -6 -297 c 1
 -6 -265 l 1
 29 -293 78 -313 136 -313 c 3
 270 -313 366 -207 366 -78 c 1
 391 -78 l 17
EndSplineSet
Fore
SplineSet
67 490 m 1
 88 501 118 510 155 510 c 0
 274 510 370 410 370 291 c 0
 370 170 273 80 154 80 c 2
 74 80 l 5
 74 98 l 5
 124 98 l 2
 269 98 345 186 345 291 c 0
 345 396 260 485 155 485 c 0
 113 485 91 476 67 464 c 1
 67 490 l 1
65 -318 m 1
 65 -292 l 1
 89 -304 111 -313 153 -313 c 3
 258 -313 345 -225 345 -120 c 0
 345 -15 269 73 124 73 c 2
 74 73 l 5
 74 91 l 5
 154 91 l 2
 273 91 370 1 370 -120 c 0
 370 -239 272 -338 153 -338 c 3
 116 -338 86 -329 65 -318 c 1
EndSplineSet
EndChar

StartChar: .notdef
Encoding: 1114112 -1 28
Width: 652
Flags: HMW
LayerCount: 2
Back
SplineSet
575 802 m 5
 99 6 l 5
 79 26 l 5
 557 822 l 5
 575 802 l 5
79 802 m 5
 97 822 l 5
 575 26 l 5
 555 6 l 5
 79 802 l 5
95 803 m 1
 95 25 l 1
 557 25 l 1
 557 803 l 1
 95 803 l 1
70 828 m 1
 582 828 l 1
 582 0 l 1
 70 0 l 1
 70 828 l 1
EndSplineSet
Fore
SplineSet
575 802 m 1
 99 6 l 1
 79 26 l 1
 557 822 l 1
 575 802 l 1
79 802 m 1
 97 822 l 1
 575 26 l 1
 555 6 l 1
 79 802 l 1
95 803 m 1
 95 25 l 1
 557 25 l 1
 557 803 l 1
 95 803 l 1
70 828 m 1
 582 828 l 1
 582 0 l 1
 70 0 l 1
 70 828 l 1
EndSplineSet
EndChar

StartChar: period
Encoding: 46 46 29
Width: 264
Flags: MW
LayerCount: 2
Fore
SplineSet
102 20 m 0
 102 37 115 50 132 50 c 0
 149 50 162 37 162 20 c 0
 162 3 149 -10 132 -10 c 0
 115 -10 102 3 102 20 c 0
EndSplineSet
EndChar

StartChar: comma
Encoding: 44 44 30
Width: 259
Flags: MW
LayerCount: 2
Back
SplineSet
62 0 m 0
 62 28 84 50 112 50 c 0
 140 50 162 28 162 0 c 0
 162 -28 140 -50 112 -50 c 0
 84 -50 62 -28 62 0 c 0
72 5 m 0
 72 30 92 50 117 50 c 0
 142 50 162 30 162 5 c 0
 162 -20 142 -40 117 -40 c 0
 92 -40 72 -20 72 5 c 0
72 -10 m 0
 72 23 99 50 132 50 c 0
 165 50 192 23 192 -10 c 0
 192 -43 165 -70 132 -70 c 0
 99 -70 72 -43 72 -10 c 0
102 20 m 0
 102 37 115 50 132 50 c 0
 149 50 162 37 162 20 c 0
 162 3 149 -10 132 -10 c 0
 115 -10 102 3 102 20 c 0
EndSplineSet
Fore
SplineSet
102 20 m 0
 102 37 115 50 132 50 c 0
 152 50 164 34 164 4 c 0
 164 -28 147 -55 132 -55 c 1
 132 -10 l 1
 115 -10 102 3 102 20 c 0
EndSplineSet
EndChar

StartChar: question
Encoding: 63 63 34
Width: 602
Flags: MW
LayerCount: 2
Fore
SplineSet
269 20 m 0
 269 37 282 50 299 50 c 0
 316 50 329 37 329 20 c 0
 329 3 316 -10 299 -10 c 0
 282 -10 269 3 269 20 c 0
284 343 m 1
 309 343 l 1
 309 149 l 1
 284 149 l 1
 284 343 l 1
296 343 m 0
 430 343 526 449 526 578 c 0
 526 707 430 813 296 813 c 0
 162 813 66 707 66 578 c 0
 41 578 l 0
 41 723 147 838 296 838 c 0
 445 838 551 723 551 578 c 0
 551 433 445 318 296 318 c 0
 296 343 l 0
EndSplineSet
EndChar

StartChar: two
Encoding: 50 50 35
Width: 1000
LayerCount: 2
Back
SplineSet
50 25 m 5
 561 25 l 5
 561 0 l 5
 50 0 l 5
 50 25 l 5
306 279 m 4
 172 279 76 154 76 25 c 4
 51 25 l 4
 51 170 157 304 306 304 c 4
 306 279 l 4
306 304 m 4
 440 304 536 430 536 559 c 4
 536 688 440 813 306 813 c 4
 172 813 76 707 76 578 c 4
 51 578 l 4
 51 723 157 838 306 838 c 4
 455 838 561 704 561 559 c 4
 561 414 455 279 306 279 c 4
 306 304 l 4
EndSplineSet
EndChar
